<svg width="31" height="35" viewBox="0 0 31 35" fill="none" xmlns="http://www.w3.org/2000/svg">
<path d="M23.2913 0.802184C19.2281 0.802184 15.922 4.25668 15.922 8.50218C15.922 10.3733 16.5658 12.0897 17.6317 13.426L0.905985 30.9022L4.05939 34.1971L5.00668 33.2073L2.80057 30.9022L5.20297 28.3927L7.40908 30.6978L8.35638 29.708L6.15027 27.4029L18.579 14.4158C19.8572 15.5302 21.4999 16.2022 23.2913 16.2022C27.3545 16.2022 30.6606 12.7477 30.6606 8.50218C30.6606 4.25669 27.3545 0.802185 23.2913 0.802184ZM23.2913 14.8022C19.9671 14.8022 17.2619 11.9756 17.2619 8.50218C17.2619 5.02878 19.9671 2.20218 23.2913 2.20218C26.6156 2.20218 29.3208 5.02879 29.3208 8.50218C29.3208 11.9756 26.6156 14.8022 23.2913 14.8022Z" fill="#404040"/>
</svg>
