<svg width="33" height="50" viewBox="0 0 33 50" fill="none" xmlns="http://www.w3.org/2000/svg">
<path d="M31.5111 38.2801C31.5104 38.2802 31.5091 38.2801 31.5077 38.2801H1.07777C0.779644 38.2801 0.509635 38.0951 0.391019 37.8092C0.272235 37.5234 0.327302 37.191 0.53093 36.9637L7.34949 29.3448H2.63127C2.34146 29.3448 2.07761 29.1699 1.954 28.896C1.83039 28.622 1.86932 28.2982 2.05398 28.0645L8.92794 19.366H6.8514C6.58422 19.366 6.33734 19.2172 6.20341 18.9756C6.06949 18.734 6.06899 18.436 6.20225 18.194L15.6454 1.01879C15.7786 0.776469 16.0253 0.626977 16.2928 0.626282C16.2933 0.626282 16.294 0.626282 16.2947 0.626282C16.5615 0.626282 16.8079 0.774557 16.942 1.01548L26.4924 18.1907C26.627 18.4327 26.6277 18.7313 26.4941 18.9738C26.3603 19.2165 26.1131 19.3658 25.8452 19.3658H23.6579L30.5319 28.0644C30.7164 28.298 30.7555 28.6218 30.632 28.8958C30.5084 29.1697 30.2446 29.3446 29.9548 29.3446H25.331L32.0191 36.9228C32.1674 37.0657 32.26 37.2705 32.26 37.4978C32.2597 37.9298 31.9247 38.2801 31.5111 38.2801ZM2.80279 36.7156H29.7992L23.0716 29.0927C22.8702 28.8643 22.8171 28.533 22.9364 28.2486C23.0558 27.9641 23.3248 27.7803 23.6221 27.7803H28.3655L21.4915 19.0818C21.307 18.8482 21.2679 18.5243 21.3914 18.2504C21.515 17.9764 21.7788 17.8015 22.0686 17.8015H24.5443L16.2985 2.97209L8.14504 17.8015H10.5172C10.807 17.8015 11.0709 17.9764 11.1945 18.2504C11.3181 18.5243 11.2792 18.8482 11.0945 19.0818L4.22053 27.7803H9.07484C9.37297 27.7803 9.64297 27.9653 9.76159 28.251C9.88037 28.537 9.82531 28.8692 9.62168 29.0967L2.80279 36.7156Z" fill="#404040"/>
<path d="M18.7358 49.6543H13.8497C13.4363 49.6543 13.1011 49.304 13.1011 48.8721V37.4978C13.1011 37.0658 13.4363 36.7156 13.8497 36.7156H18.7358C19.1492 36.7156 19.4844 37.0658 19.4844 37.4978V48.8721C19.4844 49.304 19.1494 49.6543 18.7358 49.6543ZM14.5983 48.0898H17.9872V38.28H14.5983V48.0898Z" fill="#404040"/>
</svg>
