<svg width="21" height="11" viewBox="0 0 21 11" fill="none" xmlns="http://www.w3.org/2000/svg">
<path fill-rule="evenodd" clip-rule="evenodd" d="M10.2547 10.8838H11.5074C11.5074 10.8838 11.8857 10.8458 12.0793 10.6554C12.2571 10.4805 12.2513 10.1524 12.2513 10.1524C12.2513 10.1524 12.227 8.61606 13.0069 8.38962C13.7761 8.16674 14.7638 9.8745 15.8103 10.5315C16.602 11.0284 17.2035 10.9196 17.2035 10.9196L20.0026 10.8838C20.0026 10.8838 21.4667 10.8013 20.7723 9.74914C20.7156 9.66294 20.368 8.97074 18.6912 7.54788C16.9359 6.05906 17.1713 6.29979 19.2853 3.7241C20.5728 2.15551 21.0876 1.19793 20.9267 0.788011C20.7735 0.397264 19.8263 0.500368 19.8263 0.500368L16.6749 0.518226C16.6749 0.518226 16.4413 0.489176 16.268 0.583827C16.0986 0.676692 15.9899 0.89302 15.9899 0.89302C15.9899 0.89302 15.4909 2.1067 14.826 3.13893C13.4226 5.31709 12.8614 5.43246 12.6321 5.29697C12.0983 4.98159 12.2318 4.03079 12.2318 3.35514C12.2318 1.24388 12.5821 0.363928 11.5496 0.13617C11.2071 0.0605682 10.9548 0.010683 10.0785 0.00234894C8.95418 -0.00789003 8.00244 0.0055635 7.46359 0.247013C7.10501 0.407503 6.82836 0.765033 6.99691 0.785749C7.20531 0.810871 7.67682 0.901831 7.92703 1.21293C8.25005 1.61451 8.23872 2.51661 8.23872 2.51661C8.23872 2.51661 8.42432 5.00135 7.80537 5.31007C7.38063 5.52163 6.79788 5.08945 5.5467 3.11321C4.90586 2.10098 4.42172 0.982195 4.42172 0.982195C4.42172 0.982195 4.32846 0.77301 4.162 0.661215C3.96011 0.525489 3.67786 0.482509 3.67786 0.482509L0.683006 0.500368C0.683006 0.500368 0.233511 0.511797 0.0684832 0.690741C-0.0784396 0.849683 0.0567606 1.17816 0.0567606 1.17816C0.0567606 1.17816 2.40114 6.19228 5.05604 8.71893C7.49069 11.0358 10.2547 10.8838 10.2547 10.8838Z" fill="#0F0F0F"/>
</svg>
